{"title":"Margin Call 2011 R5 XViD - REBORN","uid":6764234,"size":1841395073,"categoryP":"video","categoryS":"movies","magnet":"?xt=urn:btih:03c687b10e200f689b3ce49253ee23ffcd075293&amp;dn=Margin+Call+2011+R5+XViD+-+REBORN&amp;tr=udp%3A%2F%2Ftracker.openbittorrent.com%3A80&amp;tr=udp%3A%2F%2Fopen.demonii.com%3A1337&amp;tr=udp%3A%2F%2Ftracker.coppersurfer.tk%3A6969&amp;tr=udp%3A%2F%2Fexodus.desync.com%3A6969","seeders":0,"leechers":0,"uploader":"TvTeam","files":16,"time":1319310556,"description":". \n &lt;a href=&quot;\nhttp://www.torrenting.com&quot; rel=&quot;nofollow&quot; target=&quot;_NEW&quot;&gt;\nhttp://www.torrenting.com&lt;/a&gt;          :     Once &amp; For all ;)\n\n\n               www . Torrenting . Com \n\n(((((((((((((= Enjoy No RAR releases =))))))))))))))))))))\n\n\n...................................NFO:....................................\n\n.Margin Call 2011 R5 XViD - REBORN\n\nSOURCES THANKED:\nAUDIO....Hive-CM8\nvideo....Russian DVD9\n &lt;a href=&quot;\nhttp://www.imdb.com/title/tt1615147/&quot; rel=&quot;nofollow&quot; target=&quot;_NEW&quot;&gt;\nhttp://www.imdb.com/title/tt1615147/&lt;/a&gt;\n\n\nVideo\nID                               : 0\nFormat                           : MPEG-4 Visual\nFormat profile                   : Advanced Simple@L5\nFormat settings, BVOP            : 2\nFormat settings, QPel            : No\nFormat settings, GMC             : No warppoints\nFormat settings, Matrix          : Default (MPEG)\nMuxing mode                      : Packed bitstream\nCodec ID                         : XVID\nCodec ID/Hint                    : XviD\nDuration                         : 1h 42mn\nBit rate                         : 1 720 Kbps\nWidth                            : 720 pixels\nHeight                           : 384 pixels\nDisplay aspect ratio             : 1.875\nFrame rate                       : 25.000 fps\nColor space                      : YUV\nChroma subsampling               : 4:2:0\nBit depth                        : 8 bits\nScan type                        : Progressive\nCompression mode                 : Lossy\nBits/(Pixel*Frame)               : 0.249\nStream size                      : 1.23 GiB (79%)\nWriting library                  : XviD 64\n\nAudio\nID                               : 1\nFormat                           : AC-3\nFormat/Info                      : Audio Coding 3\nMode extension                   : CM (complete main)\nCodec ID                         : 2000\nDuration                         : 1h 42mn\nBit rate mode                    : Constant\nBit rate                         : 448 Kbps\nChannel(s)                       : 6 channels\nChannel positions                : Front: L C R, Side: L R, LFE\nSampling rate                    : 48.0 KHz\nBit depth                        : 16 bits\nCompression mode                 : Lossy\nStream size                      : 327 MiB (21%)\nAlignment                        : Split accross interleaves\nInterleave, duration             : 40 ms (1.00 video frame)\nInterleave, preload duration     : 500 ms\n\n\nWORKDONE:\n\nOk took the dvd9 and ripped it,but the video was nice but had faults...colours slightly\noff,video noise etc...\nSo made a .avs dropped into vdub and used brightness,contrast,rgb eq,smoother HQ,resize,\nsharpen and fixed it so it looked good too me :P\nAudio i stripped hives and remuxed to my encode....so syncing etc..is thanks to them.\n\n[IMG]http://i.imgur.com/VJPNi.png[/IMG]\n[IMG]http://i.imgur.com/vmnpo.png[/IMG]\n[IMG]http://i.imgur.com/cV47T.png[/IMG]\n[IMG]http://i.imgur.com/gJQNC.png[/IMG]","torrent":{"xt":"urn:btih:03c687b10e200f689b3ce49253ee23ffcd075293","amp;dn":"Margin+Call+2011+R5+XViD+-+REBORN","amp;tr":["udp%3A%2F%2Ftracker.openbittorrent.com%3A80","udp%3A%2F%2Fopen.demonii.com%3A1337","udp%3A%2F%2Ftracker.coppersurfer.tk%3A6969","udp%3A%2F%2Fexodus.desync.com%3A6969"],"infoHash":"03c687b10e200f689b3ce49253ee23ffcd075293","infoHashBuffer":{"type":"Buffer","data":[3,198,135,177,14,32,15,104,155,60,228,146,83,238,35,255,205,7,82,147]},"announce":[],"urlList":[]}}